# xmcd CD database file
#
# Track frame offsets:
#	150
#	15007
#	30024
#	43521
#	58284
#	87602
#	115662
#	133637
#	147037
#	162372
#	174343
#	189118
#	204473
#	221486
#	236536
#	254181
#	283157
#	301454
#
# Disc length: 4346 seconds
#
# Revision: 0
# Processed by: cddbd v1.5.1PL0 Copyright (c) Steve Scherf et al.
# Submitted via: CDex 1.51
#
DISCID=f410f812
DTITLE=Various Artist - Dancing Energy -6th Stage-
DYEAR=1900
DGENRE=Dance
TTITLE0=TYPICAL TROPICAL [BAMBEE]
TTITLE1=DANCE ROMANCE [Tonight Brothers]
TTITLE2=O-LA O-LA [CASSANDORA]
TTITLE3=BUNBLE BEE [BAMBEE]
TTITLE4=NEW YOURK CITY BOY -Almighty Definitive Mix- [PET SHOP BOYS]
TTITLE5=YOU MAKE ME [MONDRY MICHIRU]
TTITLE6=SWEETEST SECRET [NEWTON]
TTITLE7=SET ME FREE [Solid Base]
TTITLE8=SUPER HERO [DAZE]
TTITLE9=TRY ME [LOLITA]
TTITLE10=BOYS (Y&Co Mix) [smile dk]
TTITLE11=JUST DON'T HAVE THE HEART [JON OTIS]
TTITLE12=1234-007 [NINNI]
TTITLE13=SKY HIGH [KALEIDOSCOPE feat MAGORIA]
TTITLE14=TOTAL ECLIPSE OF THE HEART [NICKI FRENCH]
TTITLE15=Love's About To Change My Heart -Mighty Mix- [DRAMA feat MELANIE WILSON]
TTITLE16=BECAUSE YOU LOVE ME -Milki Bar 'M' Edit - [SUZANN RYE]
TTITLE17=DISTANT MEMORIES [GTS feat JUNE STANLEY]
EXTD=
EXTT0=
EXTT1=
EXTT2=
EXTT3=
EXTT4=
EXTT5=
EXTT6=
EXTT7=
EXTT8=
EXTT9=
EXTT10=
EXTT11=
EXTT12=
EXTT13=
EXTT14=
EXTT15=
EXTT16=
EXTT17=
PLAYORDER=
